<svg width="34" height="34" viewBox="0 0 34 34" fill="none" xmlns="http://www.w3.org/2000/svg">
<path d="M33.098 17.2887C33.098 16.1756 32.9994 15.1188 32.8303 14.0902H16.9084V20.4449H26.0247C25.6161 22.5302 24.4185 24.2915 22.6431 25.4892V29.7162H28.0819C31.2663 26.7714 33.098 22.4316 33.098 17.2887Z" fill="#4285F4"/>
<path d="M16.9084 33.8166C21.4736 33.8166 25.2921 32.2948 28.0819 29.7163L22.6431 25.4893C21.1214 26.5038 19.191 27.1237 16.9084 27.1237C12.4982 27.1237 8.76428 24.1507 7.42571 20.135H1.81781V24.4889C4.59358 30.0122 10.3001 33.8166 16.9084 33.8166Z" fill="#34A853"/>
<path d="M7.42553 20.1349C7.07328 19.1204 6.8901 18.0355 6.8901 16.9083C6.8901 15.7811 7.08737 14.6961 7.42553 13.6816V9.32776H1.81763C0.662238 11.6104 0 14.1748 0 16.9083C0 19.6418 0.662238 22.2062 1.81763 24.4888L7.42553 20.1349Z" fill="#FBBC05"/>
<path d="M16.9084 6.69296C19.4024 6.69296 21.6286 7.55247 23.3899 9.2292L28.2087 4.41035C25.2921 1.67686 21.4736 0.00012207 16.9084 0.00012207C10.3001 0.00012207 4.59358 3.80448 1.81781 9.32783L7.42571 13.6817C8.76428 9.666 12.4982 6.69296 16.9084 6.69296Z" fill="#EA4335"/>
</svg>
