<svg width="48" height="48" viewBox="0 0 48 48" fill="none" xmlns="http://www.w3.org/2000/svg">
<g clip-path="url(#clip0_42_1133)">
<path d="M48 24.0001C48 10.7452 37.2548 5.72205e-05 24 5.72205e-05C10.7452 5.72205e-05 0 10.7452 0 24.0001C0 35.9791 8.77645 45.908 20.25 47.7085V30.9376H14.1563V24.0001H20.25V18.7126C20.25 12.6976 23.833 9.37506 29.3152 9.37506C31.941 9.37506 34.6875 9.84381 34.6875 9.84381V15.7501H31.6612C28.6798 15.7501 27.75 17.6001 27.75 19.498V24.0001H34.4062L33.3422 30.9376H27.75V47.7085C39.2235 45.908 48 35.9791 48 24.0001Z" fill="#1877F2"/>
<path d="M33.3422 30.9375L34.4063 24H27.75V19.498C27.75 17.6 28.6798 15.75 31.6612 15.75H34.6875V9.84375C34.6875 9.84375 31.941 9.375 29.3152 9.375C23.833 9.375 20.25 12.6975 20.25 18.7125V24H14.1562V30.9375H20.25V47.7084C21.4719 47.9002 22.7243 48 24 48C25.2758 48 26.5281 47.9002 27.75 47.7084V30.9375H33.3422Z" fill="white"/>
</g>
<defs>
<clipPath id="clip0_42_1133">
<rect width="48" height="48" fill="white"/>
</clipPath>
</defs>
</svg>
