<svg width="48" height="36" viewBox="0 0 48 36" fill="none" xmlns="http://www.w3.org/2000/svg">
<g clip-path="url(#clip0_42_1142)">
<path d="M3.2815 36.0002H10.9383V17.4859L0 9.25732V32.7216C0 34.5216 1.47989 36.0002 3.2815 36.0002Z" fill="#4285F4"/>
<path d="M37.126 36.0002H44.7828C46.5844 36.0002 48.0643 34.5216 48.0643 32.7216V9.25732L37.126 17.4216" fill="#34A853"/>
<path d="M37.126 3.27862V17.4858L48.0643 9.32148V4.88577C48.0643 0.835766 43.4316 -1.47852 40.2144 0.964338" fill="#FBBC04"/>
<path d="M10.9385 17.486V3.27881L24.0645 13.1145L37.1261 3.27881V17.486L24.0001 27.2574" fill="#EA4335"/>
<path d="M0 4.88593V9.25736L10.9383 17.4216V3.27879L7.84987 0.964503C4.63271 -1.41407 0 0.900218 0 4.88593Z" fill="#C5221F"/>
</g>
<defs>
<clipPath id="clip0_42_1142">
<rect width="48" height="36" fill="white"/>
</clipPath>
</defs>
</svg>
