<svg width="48" height="48" viewBox="0 0 48 48" fill="none" xmlns="http://www.w3.org/2000/svg">
<g clip-path="url(#clip0_42_1138)">
<path d="M39.6432 11.1757C39.6432 9.58243 38.3519 8.2959 36.7646 8.2959C35.1772 8.2959 33.8848 9.58243 33.8848 11.1757C33.8848 12.7631 35.1772 14.0496 36.7646 14.0496C38.3519 14.0496 39.6432 12.7631 39.6432 11.1757Z" fill="url(#paint0_linear_42_1138)"/>
<path d="M43.4787 33.6548C43.3721 35.9921 42.9812 37.262 42.6567 38.1054C42.2207 39.2237 41.7007 40.0233 40.8573 40.862C40.0233 41.7007 39.2236 42.2195 38.1053 42.6507C37.2619 42.9801 35.9873 43.3722 33.6501 43.4835C31.1233 43.5949 30.3747 43.6186 23.9671 43.6186C17.5655 43.6186 16.8108 43.5949 14.284 43.4835C11.9469 43.3722 10.6781 42.9801 9.83461 42.6507C8.71045 42.2195 7.91679 41.7007 7.07809 40.862C6.23343 40.0233 5.71341 39.2237 5.2834 38.1054C4.95875 37.262 4.56197 35.9921 4.46121 33.6548C4.33808 31.128 4.31551 30.3675 4.31551 23.973C4.31551 17.5654 4.33808 16.8108 4.46121 14.284C4.56197 11.9468 4.95875 10.6781 5.2834 9.82754C5.71341 8.71045 6.23343 7.91555 7.07809 7.07684C7.91679 6.23938 8.71045 5.71928 9.83461 5.2834C10.6781 4.95289 11.9469 4.56668 14.284 4.45536C16.8108 4.34394 17.5655 4.31551 23.9671 4.31551C30.3747 4.31551 31.1233 4.34394 33.6501 4.45536C35.9873 4.56668 37.2619 4.95289 38.1053 5.2834C39.2236 5.71928 40.0233 6.23938 40.8573 7.07684C41.7007 7.91555 42.2207 8.71045 42.6567 9.82754C42.9812 10.6781 43.3721 11.9468 43.4787 14.284C43.596 16.8108 43.6245 17.5654 43.6245 23.973C43.6245 30.3675 43.596 31.128 43.4787 33.6548ZM47.7943 14.0874C47.6771 11.5333 47.2742 9.78844 46.676 8.26862C46.0672 6.69187 45.251 5.35563 43.9147 4.01938C42.5844 2.6891 41.2482 1.87288 39.6715 1.2569C38.1457 0.66457 36.4067 0.257032 33.8514 0.145709C31.2962 0.0224793 30.4801 0 23.9671 0C17.46 0 16.6379 0.0224793 14.0827 0.145709C11.5334 0.257032 9.79551 0.66457 8.26267 1.2569C6.69187 1.87288 5.35563 2.6891 4.02534 4.01938C2.6891 5.35563 1.87287 6.69187 1.25806 8.26862C0.665722 9.78844 0.262983 11.5333 0.139755 14.0874C0.0284307 16.6426 0 17.46 0 23.973C0 30.4801 0.0284307 31.2962 0.139755 33.8514C0.262983 36.4007 0.665722 38.1445 1.25806 39.6715C1.87287 41.2423 2.6891 42.5845 4.02534 43.9147C5.35563 45.2451 6.69187 46.0672 8.26267 46.682C9.79551 47.2743 11.5334 47.6771 14.0827 47.7944C16.6379 47.9117 17.46 47.9401 23.9671 47.9401C30.4801 47.9401 31.2962 47.9117 33.8514 47.7944C36.4067 47.6771 38.1457 47.2743 39.6715 46.682C41.2482 46.0672 42.5844 45.2451 43.9147 43.9147C45.251 42.5845 46.0672 41.2423 46.676 39.6715C47.2742 38.1445 47.6771 36.4007 47.7943 33.8514C47.9116 31.2962 47.94 30.4801 47.94 23.973C47.94 17.46 47.9116 16.6426 47.7943 14.0874Z" fill="url(#paint1_linear_42_1138)"/>
<path d="M23.9666 31.9562C19.5563 31.9562 15.9776 28.3834 15.9776 23.9731C15.9776 19.5556 19.5563 15.9782 23.9666 15.9782C28.3782 15.9782 31.9616 19.5556 31.9616 23.9731C31.9616 28.3834 28.3782 31.9562 23.9666 31.9562ZM23.9666 11.6567C17.1682 11.6567 11.6621 17.1746 11.6621 23.9731C11.6621 30.7657 17.1682 36.2777 23.9666 36.2777C30.7651 36.2777 36.2771 30.7657 36.2771 23.9731C36.2771 17.1746 30.7651 11.6567 23.9666 11.6567Z" fill="url(#paint2_linear_42_1138)"/>
</g>
<defs>
<linearGradient id="paint0_linear_42_1138" x1="0.432564" y1="47.4444" x2="43.9473" y2="3.92984" gradientUnits="userSpaceOnUse">
<stop stop-color="#FFD521"/>
<stop offset="0.05" stop-color="#FFD521"/>
<stop offset="0.501119" stop-color="#F50000"/>
<stop offset="0.95" stop-color="#B900B4"/>
<stop offset="0.950079" stop-color="#B900B4"/>
<stop offset="1" stop-color="#B900B4"/>
</linearGradient>
<linearGradient id="paint1_linear_42_1138" x1="0.432412" y1="47.5041" x2="43.9829" y2="3.95365" gradientUnits="userSpaceOnUse">
<stop stop-color="#FFD521"/>
<stop offset="0.05" stop-color="#FFD521"/>
<stop offset="0.501119" stop-color="#F50000"/>
<stop offset="0.95" stop-color="#B900B4"/>
<stop offset="0.950079" stop-color="#B900B4"/>
<stop offset="1" stop-color="#B900B4"/>
</linearGradient>
<linearGradient id="paint2_linear_42_1138" x1="0.443291" y1="47.5054" x2="43.9833" y2="3.9654" gradientUnits="userSpaceOnUse">
<stop stop-color="#FFD521"/>
<stop offset="0.05" stop-color="#FFD521"/>
<stop offset="0.501119" stop-color="#F50000"/>
<stop offset="0.95" stop-color="#B900B4"/>
<stop offset="0.950079" stop-color="#B900B4"/>
<stop offset="1" stop-color="#B900B4"/>
</linearGradient>
<clipPath id="clip0_42_1138">
<rect width="48" height="48" fill="white"/>
</clipPath>
</defs>
</svg>
