<svg width="48" height="36" viewBox="0 0 48 36" fill="none" xmlns="http://www.w3.org/2000/svg">
<g clip-path="url(#clip0_34_363)">
<path d="M3.2815 35.9997H10.9383V17.4854L0 9.25684V32.7211C0 34.5211 1.47989 35.9997 3.2815 35.9997Z" fill="#4285F4"/>
<path d="M37.126 35.9997H44.7828C46.5844 35.9997 48.0643 34.5211 48.0643 32.7211V9.25684L37.126 17.4211" fill="#34A853"/>
<path d="M37.126 3.27862V17.4858L48.0643 9.32148V4.88577C48.0643 0.835766 43.4316 -1.47852 40.2144 0.964338" fill="#FBBC04"/>
<path d="M10.9382 17.4855V3.27832L24.0642 13.114L37.1259 3.27832V17.4855L23.9999 27.2569" fill="#EA4335"/>
<path d="M0 4.88593V9.25736L10.9383 17.4216V3.27879L7.84987 0.964503C4.63271 -1.41407 0 0.900218 0 4.88593Z" fill="#C5221F"/>
</g>
<defs>
<clipPath id="clip0_34_363">
<rect width="48" height="36" fill="white"/>
</clipPath>
</defs>
</svg>
